<svg xmlns="http://www.w3.org/2000/svg" viewBox="0 0 62.52 62.52"><defs><style>.cls-1{fill:#1b1464;}</style></defs><title>Asset 5</title><g id="Layer_2" data-name="Layer 2"><g id="Layer_1-2" data-name="Layer 1"><path class="cls-1" d="M31.26,0A31.25,31.25,0,0,0,1.19,22.73h24a4.27,4.27,0,1,0-1.9-8,4.1,4.1,0,0,0-2.15,3.6c0,.58-.35.94-.86.94a.83.83,0,0,1-.86-.93,5.75,5.75,0,0,1,2.37-4.66,6,6,0,1,1,3.62,10.71H.76a29.92,29.92,0,0,0-.57,3.43H38.85a4.27,4.27,0,1,0-4-4.56c0,.09,0,.18,0,.27a.82.82,0,0,1-.86.86.81.81,0,0,1-.83-.89,5.51,5.51,0,0,1,1.55-4A5.72,5.72,0,0,1,41,18a6,6,0,0,1,2.21,9.91A5.8,5.8,0,0,1,39,29.54H.05c0,.57,0,1.14,0,1.72S0,32.41.05,33C10.26,33,29,33,38.9,33a6,6,0,0,1,5.71,3.78,5.72,5.72,0,0,1-1.12,6.2,5.66,5.66,0,0,1-6,1.76,5.94,5.94,0,0,1-4.42-5.76.84.84,0,0,1,1.68-.07,5.11,5.11,0,0,0,.46,2,4.26,4.26,0,1,0,3.86-6.15c-1.56,0-3.12,0-4.68,0H.19a29.56,29.56,0,0,0,.57,3.43H17.15c2.85,0,5.69,0,8.54,0a6,6,0,1,1-6.24,6.11.86.86,0,0,1,.82-1c.51,0,.86.35.89.94a4.26,4.26,0,1,0,4.42-4.37H1.19A31.26,31.26,0,1,0,31.26,0Z"/></g></g></svg>