<svg xmlns="http://www.w3.org/2000/svg" viewBox="0 0 87.57 71.58"><defs><style>.cls-1{fill:#b3b3b3;}</style></defs><title>Asset 4</title><g id="Layer_2" data-name="Layer 2"><g id="Layer_1-2" data-name="Layer 1"><path class="cls-1" d="M64.18,20.31a4.39,4.39,0,1,0-5.43,6.91,11.08,11.08,0,0,1-.46,17.49,3.87,3.87,0,0,0-.65,5.53l.37.37a4.45,4.45,0,0,0,6,.73,19.86,19.86,0,0,0,.18-31Z"/><path class="cls-1" d="M74.22,8a4.46,4.46,0,0,0-6.08.65h0a4.36,4.36,0,0,0,.55,6.08,27.16,27.16,0,0,1,0,42.17A4.35,4.35,0,0,0,68.14,63h0a4.37,4.37,0,0,0,6.08.73A35.73,35.73,0,0,0,74.22,8Z"/><path class="cls-1" d="M38.49,1.25,16.11,18.47H5.16A5.15,5.15,0,0,0,0,23.63V47.94a5.14,5.14,0,0,0,5.16,5.15h11L38.58,70.31a5.93,5.93,0,0,0,9.58-4.79V6A6,6,0,0,0,38.49,1.25Z"/></g></g></svg>