<?xml version="1.0" encoding="UTF-8"?>
<svg width="180px" height="38px" viewBox="0 0 180 38" version="1.1" xmlns="http://www.w3.org/2000/svg" xmlns:xlink="http://www.w3.org/1999/xlink">
    <!-- Generator: Sketch 51.3 (57544) - http://www.bohemiancoding.com/sketch -->
    <title>Artboard</title>
    <desc>Created with Sketch.</desc>
    <defs>
        <polygon id="path-1" points="0 0.0001 44.93 0.0001 44.93 37.9556 0 37.9556"></polygon>
        <polygon id="path-3" points="0 0.0001 44.93 0.0001 44.93 37.9556 0 37.9556"></polygon>
        <polygon id="path-5" points="0 0.0001 44.93 0.0001 44.93 37.9556 0 37.9556"></polygon>
        <polygon id="path-7" points="0 0.0001 44.93 0.0001 44.93 37.9556 0 37.9556"></polygon>
    </defs>
    <g id="Artboard" stroke="none" stroke-width="1" fill="none" fill-rule="evenodd">
        <g id="Group-3-Copy">
            <mask id="mask-2" fill="white">
                <use xlink:href="#path-1"></use>
            </mask>
            <g id="Clip-2"></g>
            <path d="M44.7522,22.0356 L22.8952,0.1786 C22.6572,-0.0594 22.2732,-0.0594 22.0352,0.1786 L0.1782,22.0356 C0.0042,22.2096 -0.0478,22.4706 0.0462,22.6976 C0.1412,22.9246 0.3612,23.0726 0.6072,23.0726 L7.8632,23.0726 L7.8632,37.3486 C7.8632,37.6826 8.1102,37.9556 8.4152,37.9556 L18.8182,37.9556 L18.8182,32.8186 C18.8182,32.5666 19.0232,32.3636 19.2742,32.3636 L25.6552,32.3636 C25.9072,32.3636 26.1102,32.5666 26.1102,32.8186 L26.1102,37.9556 L36.5142,37.9556 C36.8192,37.9556 37.0662,37.6826 37.0662,37.3486 L37.0662,23.0726 L44.3222,23.0726 C44.5672,23.0726 44.7892,22.9246 44.8842,22.6976 C44.9782,22.4706 44.9262,22.2096 44.7522,22.0356" id="Fill-1" fill="#FFFFFF" mask="url(#mask-2)"></path>
        </g>
        <g id="Group-3" transform="translate(45.000000, 0.000000)">
            <mask id="mask-4" fill="white">
                <use xlink:href="#path-3"></use>
            </mask>
            <g id="Clip-2"></g>
            <path d="M44.7522,22.0356 L22.8952,0.1786 C22.6572,-0.0594 22.2732,-0.0594 22.0352,0.1786 L0.1782,22.0356 C0.0042,22.2096 -0.0478,22.4706 0.0462,22.6976 C0.1412,22.9246 0.3612,23.0726 0.6072,23.0726 L7.8632,23.0726 L7.8632,37.3486 C7.8632,37.6826 8.1102,37.9556 8.4152,37.9556 L18.8182,37.9556 L18.8182,32.8186 C18.8182,32.5666 19.0232,32.3636 19.2742,32.3636 L25.6552,32.3636 C25.9072,32.3636 26.1102,32.5666 26.1102,32.8186 L26.1102,37.9556 L36.5142,37.9556 C36.8192,37.9556 37.0662,37.6826 37.0662,37.3486 L37.0662,23.0726 L44.3222,23.0726 C44.5672,23.0726 44.7892,22.9246 44.8842,22.6976 C44.9782,22.4706 44.9262,22.2096 44.7522,22.0356" id="Fill-1" fill="#1B1464" mask="url(#mask-4)"></path>
        </g>
        <g id="Group-3-Copy-2" transform="translate(90.000000, 0.000000)">
            <mask id="mask-6" fill="white">
                <use xlink:href="#path-5"></use>
            </mask>
            <g id="Clip-2"></g>
            <path d="M44.7522,22.0356 L22.8952,0.1786 C22.6572,-0.0594 22.2732,-0.0594 22.0352,0.1786 L0.1782,22.0356 C0.0042,22.2096 -0.0478,22.4706 0.0462,22.6976 C0.1412,22.9246 0.3612,23.0726 0.6072,23.0726 L7.8632,23.0726 L7.8632,37.3486 C7.8632,37.6826 8.1102,37.9556 8.4152,37.9556 L18.8182,37.9556 L18.8182,32.8186 C18.8182,32.5666 19.0232,32.3636 19.2742,32.3636 L25.6552,32.3636 C25.9072,32.3636 26.1102,32.5666 26.1102,32.8186 L26.1102,37.9556 L36.5142,37.9556 C36.8192,37.9556 37.0662,37.6826 37.0662,37.3486 L37.0662,23.0726 L44.3222,23.0726 C44.5672,23.0726 44.7892,22.9246 44.8842,22.6976 C44.9782,22.4706 44.9262,22.2096 44.7522,22.0356" id="Fill-1" fill="#FBB03B" mask="url(#mask-6)"></path>
        </g>
        <g id="Group-3-Copy-3" transform="translate(135.000000, 0.000000)">
            <mask id="mask-8" fill="white">
                <use xlink:href="#path-7"></use>
            </mask>
            <g id="Clip-2"></g>
            <path d="M44.7522,22.0356 L22.8952,0.1786 C22.6572,-0.0594 22.2732,-0.0594 22.0352,0.1786 L0.1782,22.0356 C0.0042,22.2096 -0.0478,22.4706 0.0462,22.6976 C0.1412,22.9246 0.3612,23.0726 0.6072,23.0726 L7.8632,23.0726 L7.8632,37.3486 C7.8632,37.6826 8.1102,37.9556 8.4152,37.9556 L18.8182,37.9556 L18.8182,32.8186 C18.8182,32.5666 19.0232,32.3636 19.2742,32.3636 L25.6552,32.3636 C25.9072,32.3636 26.1102,32.5666 26.1102,32.8186 L26.1102,37.9556 L36.5142,37.9556 C36.8192,37.9556 37.0662,37.6826 37.0662,37.3486 L37.0662,23.0726 L44.3222,23.0726 C44.5672,23.0726 44.7892,22.9246 44.8842,22.6976 C44.9782,22.4706 44.9262,22.2096 44.7522,22.0356" id="Fill-1" fill="#FBD6E8" mask="url(#mask-8)"></path>
        </g>
    </g>
</svg>