<?xml version="1.0" encoding="UTF-8"?>
<svg width="148px" height="37px" viewBox="0 0 148 37" version="1.1" xmlns="http://www.w3.org/2000/svg" xmlns:xlink="http://www.w3.org/1999/xlink">
    <!-- Generator: Sketch 51.3 (57544) - http://www.bohemiancoding.com/sketch -->
    <title>Artboard Copy</title>
    <desc>Created with Sketch.</desc>
    <defs>
        <polygon id="path-1" points="0.000513888889 0.000411111111 36.9948611 0.000411111111 36.9948611 36.9952722 0.000513888889 36.9952722"></polygon>
        <polygon id="path-3" points="0.000513888889 0.000411111111 36.9948611 0.000411111111 36.9948611 36.9952722 0.000513888889 36.9952722"></polygon>
        <polygon id="path-5" points="0.000513888889 0.000411111111 36.9948611 0.000411111111 36.9948611 36.9952722 0.000513888889 36.9952722"></polygon>
        <polygon id="path-7" points="0.000513888889 0.000411111111 36.9948611 0.000411111111 36.9948611 36.9952722 0.000513888889 36.9952722"></polygon>
    </defs>
    <g id="Artboard-Copy" stroke="none" stroke-width="1" fill="none" fill-rule="evenodd">
        <g id="Group-3">
            <mask id="mask-2" fill="white">
                <use xlink:href="#path-1"></use>
            </mask>
            <g id="Clip-2"></g>
            <path d="M24.8275139,15.3982694 C24.591125,15.9059917 24.2879306,16.3541028 23.9199861,16.7436306 C23.5530694,17.1321306 23.1635417,17.4887694 22.7514028,17.8135472 C22.3423472,18.1372972 21.9528194,18.4723528 21.5859028,18.8187139 C21.2179583,19.1640472 20.9147639,19.5474083 20.678375,19.9687972 C20.4409583,20.3901861 20.3207083,20.8927694 20.3207083,21.4765472 C20.3207083,21.6492139 20.2631528,21.7951583 20.1439306,21.9143806 C20.0236806,22.032575 19.8797917,22.0921861 19.7050694,22.0921861 L16.238375,22.0921861 C16.0636528,22.0921861 15.9187361,22.032575 15.8005417,21.9143806 C15.6802917,21.7951583 15.6217083,21.6492139 15.6217083,21.4765472 L15.6217083,20.1147417 C15.6217083,19.4456583 15.8550139,18.850575 16.3185417,18.3315472 C16.7820694,17.8135472 17.2959583,17.3274083 17.8581528,16.8741583 C18.4203472,16.4198806 18.9342361,15.9758806 19.3977639,15.5452417 C19.8633472,15.1115194 20.0945972,14.6366861 20.0945972,14.1176583 C20.0945972,13.6212417 19.8633472,13.1782694 19.3977639,12.7887417 C18.9342361,12.3992139 18.3555972,12.2049639 17.662875,12.2049639 C17.1006806,12.2049639 16.6309861,12.3077417 16.2537917,12.5132972 C15.8745417,12.7188528 15.5518194,12.9295472 15.2804861,13.1464083 C15.0112083,13.3612139 14.7727639,13.5236028 14.5682361,13.6315194 C14.3626806,13.7404639 14.1622639,13.7065472 13.9680139,13.5349083 L11.9905694,11.589325 C11.8620972,11.4814083 11.8014583,11.3416306 11.8117361,11.1679361 C11.8240694,10.9952694 11.881625,10.8544639 11.9905694,10.747575 C12.4664306,10.2059361 13.037875,9.73110278 13.7090139,9.31999167 C14.2712083,8.953075 14.9567361,8.62315833 15.766625,8.33126944 C16.5775417,8.03938056 17.5128194,7.89343611 18.5704028,7.89343611 C19.4357917,7.89343611 20.2631528,8.03424167 21.0514583,8.314825 C21.8407917,8.59643611 22.5407083,8.99110278 23.157375,9.498825 C23.7740417,10.0065472 24.2653194,10.6067694 24.6332639,11.2974361 C25.0001806,11.9901583 25.1851806,12.745575 25.1851806,13.5667694 C25.1851806,14.2800472 25.0639028,14.8905472 24.8275139,15.3982694 M20.8243194,29.3534361 C20.6619306,29.7213806 20.4358194,30.0451306 20.1439306,30.3246861 C19.8510139,30.6062972 19.5159583,30.8282972 19.1387639,30.9906861 C18.7595139,31.1520472 18.365875,31.2332417 17.9547639,31.2332417 C17.5446806,31.2332417 17.1551528,31.1520472 16.7882361,30.9906861 C16.4202917,30.8282972 16.0975694,30.6062972 15.8159583,30.3246861 C15.535375,30.0451306 15.3123472,29.7213806 15.1520139,29.3534361 C14.989625,28.9865194 14.9094583,28.5969917 14.9094583,28.1858806 C14.9094583,27.7757972 14.989625,27.3811306 15.1520139,27.0029083 C15.3123472,26.6257139 15.535375,26.2906583 15.8159583,25.9977417 C16.0975694,25.7058528 16.4202917,25.4797417 16.7882361,25.3173528 C17.1551528,25.1559917 17.5446806,25.0737694 17.9547639,25.0737694 C18.365875,25.0737694 18.7595139,25.1559917 19.1387639,25.3173528 C19.5159583,25.4797417 19.8510139,25.7058528 20.1439306,25.9977417 C20.4358194,26.2906583 20.6619306,26.6257139 20.8243194,27.0029083 C20.9856806,27.3811306 21.0679028,27.7757972 21.0679028,28.1858806 C21.0679028,28.5969917 20.9856806,28.9865194 20.8243194,29.3534361 M18.4984583,0.000102777778 C8.28131944,0.000102777778 0.000513888889,8.28193611 0.000513888889,18.4980472 C0.000513888889,28.7131306 8.28131944,36.9959917 18.4984583,36.9959917 C28.7135417,36.9959917 36.995375,28.7131306 36.995375,18.4980472 C36.995375,8.28193611 28.7135417,0.000102777778 18.4984583,0.000102777778" id="Fill-1" fill="#FFFFFF" mask="url(#mask-2)"></path>
        </g>
        <g id="Group-3-Copy" transform="translate(37.000000, 0.000000)">
            <mask id="mask-4" fill="white">
                <use xlink:href="#path-3"></use>
            </mask>
            <g id="Clip-2"></g>
            <path d="M24.8275139,15.3982694 C24.591125,15.9059917 24.2879306,16.3541028 23.9199861,16.7436306 C23.5530694,17.1321306 23.1635417,17.4887694 22.7514028,17.8135472 C22.3423472,18.1372972 21.9528194,18.4723528 21.5859028,18.8187139 C21.2179583,19.1640472 20.9147639,19.5474083 20.678375,19.9687972 C20.4409583,20.3901861 20.3207083,20.8927694 20.3207083,21.4765472 C20.3207083,21.6492139 20.2631528,21.7951583 20.1439306,21.9143806 C20.0236806,22.032575 19.8797917,22.0921861 19.7050694,22.0921861 L16.238375,22.0921861 C16.0636528,22.0921861 15.9187361,22.032575 15.8005417,21.9143806 C15.6802917,21.7951583 15.6217083,21.6492139 15.6217083,21.4765472 L15.6217083,20.1147417 C15.6217083,19.4456583 15.8550139,18.850575 16.3185417,18.3315472 C16.7820694,17.8135472 17.2959583,17.3274083 17.8581528,16.8741583 C18.4203472,16.4198806 18.9342361,15.9758806 19.3977639,15.5452417 C19.8633472,15.1115194 20.0945972,14.6366861 20.0945972,14.1176583 C20.0945972,13.6212417 19.8633472,13.1782694 19.3977639,12.7887417 C18.9342361,12.3992139 18.3555972,12.2049639 17.662875,12.2049639 C17.1006806,12.2049639 16.6309861,12.3077417 16.2537917,12.5132972 C15.8745417,12.7188528 15.5518194,12.9295472 15.2804861,13.1464083 C15.0112083,13.3612139 14.7727639,13.5236028 14.5682361,13.6315194 C14.3626806,13.7404639 14.1622639,13.7065472 13.9680139,13.5349083 L11.9905694,11.589325 C11.8620972,11.4814083 11.8014583,11.3416306 11.8117361,11.1679361 C11.8240694,10.9952694 11.881625,10.8544639 11.9905694,10.747575 C12.4664306,10.2059361 13.037875,9.73110278 13.7090139,9.31999167 C14.2712083,8.953075 14.9567361,8.62315833 15.766625,8.33126944 C16.5775417,8.03938056 17.5128194,7.89343611 18.5704028,7.89343611 C19.4357917,7.89343611 20.2631528,8.03424167 21.0514583,8.314825 C21.8407917,8.59643611 22.5407083,8.99110278 23.157375,9.498825 C23.7740417,10.0065472 24.2653194,10.6067694 24.6332639,11.2974361 C25.0001806,11.9901583 25.1851806,12.745575 25.1851806,13.5667694 C25.1851806,14.2800472 25.0639028,14.8905472 24.8275139,15.3982694 M20.8243194,29.3534361 C20.6619306,29.7213806 20.4358194,30.0451306 20.1439306,30.3246861 C19.8510139,30.6062972 19.5159583,30.8282972 19.1387639,30.9906861 C18.7595139,31.1520472 18.365875,31.2332417 17.9547639,31.2332417 C17.5446806,31.2332417 17.1551528,31.1520472 16.7882361,30.9906861 C16.4202917,30.8282972 16.0975694,30.6062972 15.8159583,30.3246861 C15.535375,30.0451306 15.3123472,29.7213806 15.1520139,29.3534361 C14.989625,28.9865194 14.9094583,28.5969917 14.9094583,28.1858806 C14.9094583,27.7757972 14.989625,27.3811306 15.1520139,27.0029083 C15.3123472,26.6257139 15.535375,26.2906583 15.8159583,25.9977417 C16.0975694,25.7058528 16.4202917,25.4797417 16.7882361,25.3173528 C17.1551528,25.1559917 17.5446806,25.0737694 17.9547639,25.0737694 C18.365875,25.0737694 18.7595139,25.1559917 19.1387639,25.3173528 C19.5159583,25.4797417 19.8510139,25.7058528 20.1439306,25.9977417 C20.4358194,26.2906583 20.6619306,26.6257139 20.8243194,27.0029083 C20.9856806,27.3811306 21.0679028,27.7757972 21.0679028,28.1858806 C21.0679028,28.5969917 20.9856806,28.9865194 20.8243194,29.3534361 M18.4984583,0.000102777778 C8.28131944,0.000102777778 0.000513888889,8.28193611 0.000513888889,18.4980472 C0.000513888889,28.7131306 8.28131944,36.9959917 18.4984583,36.9959917 C28.7135417,36.9959917 36.995375,28.7131306 36.995375,18.4980472 C36.995375,8.28193611 28.7135417,0.000102777778 18.4984583,0.000102777778" id="Fill-1" fill="#1B1464" mask="url(#mask-4)"></path>
        </g>
        <g id="Group-3-Copy-2" transform="translate(74.000000, 0.000000)">
            <mask id="mask-6" fill="white">
                <use xlink:href="#path-5"></use>
            </mask>
            <g id="Clip-2"></g>
            <path d="M24.8275139,15.3982694 C24.591125,15.9059917 24.2879306,16.3541028 23.9199861,16.7436306 C23.5530694,17.1321306 23.1635417,17.4887694 22.7514028,17.8135472 C22.3423472,18.1372972 21.9528194,18.4723528 21.5859028,18.8187139 C21.2179583,19.1640472 20.9147639,19.5474083 20.678375,19.9687972 C20.4409583,20.3901861 20.3207083,20.8927694 20.3207083,21.4765472 C20.3207083,21.6492139 20.2631528,21.7951583 20.1439306,21.9143806 C20.0236806,22.032575 19.8797917,22.0921861 19.7050694,22.0921861 L16.238375,22.0921861 C16.0636528,22.0921861 15.9187361,22.032575 15.8005417,21.9143806 C15.6802917,21.7951583 15.6217083,21.6492139 15.6217083,21.4765472 L15.6217083,20.1147417 C15.6217083,19.4456583 15.8550139,18.850575 16.3185417,18.3315472 C16.7820694,17.8135472 17.2959583,17.3274083 17.8581528,16.8741583 C18.4203472,16.4198806 18.9342361,15.9758806 19.3977639,15.5452417 C19.8633472,15.1115194 20.0945972,14.6366861 20.0945972,14.1176583 C20.0945972,13.6212417 19.8633472,13.1782694 19.3977639,12.7887417 C18.9342361,12.3992139 18.3555972,12.2049639 17.662875,12.2049639 C17.1006806,12.2049639 16.6309861,12.3077417 16.2537917,12.5132972 C15.8745417,12.7188528 15.5518194,12.9295472 15.2804861,13.1464083 C15.0112083,13.3612139 14.7727639,13.5236028 14.5682361,13.6315194 C14.3626806,13.7404639 14.1622639,13.7065472 13.9680139,13.5349083 L11.9905694,11.589325 C11.8620972,11.4814083 11.8014583,11.3416306 11.8117361,11.1679361 C11.8240694,10.9952694 11.881625,10.8544639 11.9905694,10.747575 C12.4664306,10.2059361 13.037875,9.73110278 13.7090139,9.31999167 C14.2712083,8.953075 14.9567361,8.62315833 15.766625,8.33126944 C16.5775417,8.03938056 17.5128194,7.89343611 18.5704028,7.89343611 C19.4357917,7.89343611 20.2631528,8.03424167 21.0514583,8.314825 C21.8407917,8.59643611 22.5407083,8.99110278 23.157375,9.498825 C23.7740417,10.0065472 24.2653194,10.6067694 24.6332639,11.2974361 C25.0001806,11.9901583 25.1851806,12.745575 25.1851806,13.5667694 C25.1851806,14.2800472 25.0639028,14.8905472 24.8275139,15.3982694 M20.8243194,29.3534361 C20.6619306,29.7213806 20.4358194,30.0451306 20.1439306,30.3246861 C19.8510139,30.6062972 19.5159583,30.8282972 19.1387639,30.9906861 C18.7595139,31.1520472 18.365875,31.2332417 17.9547639,31.2332417 C17.5446806,31.2332417 17.1551528,31.1520472 16.7882361,30.9906861 C16.4202917,30.8282972 16.0975694,30.6062972 15.8159583,30.3246861 C15.535375,30.0451306 15.3123472,29.7213806 15.1520139,29.3534361 C14.989625,28.9865194 14.9094583,28.5969917 14.9094583,28.1858806 C14.9094583,27.7757972 14.989625,27.3811306 15.1520139,27.0029083 C15.3123472,26.6257139 15.535375,26.2906583 15.8159583,25.9977417 C16.0975694,25.7058528 16.4202917,25.4797417 16.7882361,25.3173528 C17.1551528,25.1559917 17.5446806,25.0737694 17.9547639,25.0737694 C18.365875,25.0737694 18.7595139,25.1559917 19.1387639,25.3173528 C19.5159583,25.4797417 19.8510139,25.7058528 20.1439306,25.9977417 C20.4358194,26.2906583 20.6619306,26.6257139 20.8243194,27.0029083 C20.9856806,27.3811306 21.0679028,27.7757972 21.0679028,28.1858806 C21.0679028,28.5969917 20.9856806,28.9865194 20.8243194,29.3534361 M18.4984583,0.000102777778 C8.28131944,0.000102777778 0.000513888889,8.28193611 0.000513888889,18.4980472 C0.000513888889,28.7131306 8.28131944,36.9959917 18.4984583,36.9959917 C28.7135417,36.9959917 36.995375,28.7131306 36.995375,18.4980472 C36.995375,8.28193611 28.7135417,0.000102777778 18.4984583,0.000102777778" id="Fill-1" fill="#FBB03B" mask="url(#mask-6)"></path>
        </g>
        <g id="Group-3-Copy-3" transform="translate(111.000000, 0.000000)">
            <mask id="mask-8" fill="white">
                <use xlink:href="#path-7"></use>
            </mask>
            <g id="Clip-2"></g>
            <path d="M24.8275139,15.3982694 C24.591125,15.9059917 24.2879306,16.3541028 23.9199861,16.7436306 C23.5530694,17.1321306 23.1635417,17.4887694 22.7514028,17.8135472 C22.3423472,18.1372972 21.9528194,18.4723528 21.5859028,18.8187139 C21.2179583,19.1640472 20.9147639,19.5474083 20.678375,19.9687972 C20.4409583,20.3901861 20.3207083,20.8927694 20.3207083,21.4765472 C20.3207083,21.6492139 20.2631528,21.7951583 20.1439306,21.9143806 C20.0236806,22.032575 19.8797917,22.0921861 19.7050694,22.0921861 L16.238375,22.0921861 C16.0636528,22.0921861 15.9187361,22.032575 15.8005417,21.9143806 C15.6802917,21.7951583 15.6217083,21.6492139 15.6217083,21.4765472 L15.6217083,20.1147417 C15.6217083,19.4456583 15.8550139,18.850575 16.3185417,18.3315472 C16.7820694,17.8135472 17.2959583,17.3274083 17.8581528,16.8741583 C18.4203472,16.4198806 18.9342361,15.9758806 19.3977639,15.5452417 C19.8633472,15.1115194 20.0945972,14.6366861 20.0945972,14.1176583 C20.0945972,13.6212417 19.8633472,13.1782694 19.3977639,12.7887417 C18.9342361,12.3992139 18.3555972,12.2049639 17.662875,12.2049639 C17.1006806,12.2049639 16.6309861,12.3077417 16.2537917,12.5132972 C15.8745417,12.7188528 15.5518194,12.9295472 15.2804861,13.1464083 C15.0112083,13.3612139 14.7727639,13.5236028 14.5682361,13.6315194 C14.3626806,13.7404639 14.1622639,13.7065472 13.9680139,13.5349083 L11.9905694,11.589325 C11.8620972,11.4814083 11.8014583,11.3416306 11.8117361,11.1679361 C11.8240694,10.9952694 11.881625,10.8544639 11.9905694,10.747575 C12.4664306,10.2059361 13.037875,9.73110278 13.7090139,9.31999167 C14.2712083,8.953075 14.9567361,8.62315833 15.766625,8.33126944 C16.5775417,8.03938056 17.5128194,7.89343611 18.5704028,7.89343611 C19.4357917,7.89343611 20.2631528,8.03424167 21.0514583,8.314825 C21.8407917,8.59643611 22.5407083,8.99110278 23.157375,9.498825 C23.7740417,10.0065472 24.2653194,10.6067694 24.6332639,11.2974361 C25.0001806,11.9901583 25.1851806,12.745575 25.1851806,13.5667694 C25.1851806,14.2800472 25.0639028,14.8905472 24.8275139,15.3982694 M20.8243194,29.3534361 C20.6619306,29.7213806 20.4358194,30.0451306 20.1439306,30.3246861 C19.8510139,30.6062972 19.5159583,30.8282972 19.1387639,30.9906861 C18.7595139,31.1520472 18.365875,31.2332417 17.9547639,31.2332417 C17.5446806,31.2332417 17.1551528,31.1520472 16.7882361,30.9906861 C16.4202917,30.8282972 16.0975694,30.6062972 15.8159583,30.3246861 C15.535375,30.0451306 15.3123472,29.7213806 15.1520139,29.3534361 C14.989625,28.9865194 14.9094583,28.5969917 14.9094583,28.1858806 C14.9094583,27.7757972 14.989625,27.3811306 15.1520139,27.0029083 C15.3123472,26.6257139 15.535375,26.2906583 15.8159583,25.9977417 C16.0975694,25.7058528 16.4202917,25.4797417 16.7882361,25.3173528 C17.1551528,25.1559917 17.5446806,25.0737694 17.9547639,25.0737694 C18.365875,25.0737694 18.7595139,25.1559917 19.1387639,25.3173528 C19.5159583,25.4797417 19.8510139,25.7058528 20.1439306,25.9977417 C20.4358194,26.2906583 20.6619306,26.6257139 20.8243194,27.0029083 C20.9856806,27.3811306 21.0679028,27.7757972 21.0679028,28.1858806 C21.0679028,28.5969917 20.9856806,28.9865194 20.8243194,29.3534361 M18.4984583,0.000102777778 C8.28131944,0.000102777778 0.000513888889,8.28193611 0.000513888889,18.4980472 C0.000513888889,28.7131306 8.28131944,36.9959917 18.4984583,36.9959917 C28.7135417,36.9959917 36.995375,28.7131306 36.995375,18.4980472 C36.995375,8.28193611 28.7135417,0.000102777778 18.4984583,0.000102777778" id="Fill-1" fill="#FBD6E8" mask="url(#mask-8)"></path>
        </g>
    </g>
</svg>